# xmcd CD database file
#
# Track frame offsets:
#	150
#	19732
#	62149
#	82834
#	117423
#	146997
#
# Disc length: 2365 seconds
#
# Revision: 0
# Processed by: cddbd v1.5.2PL0 Copyright (c) Steve Scherf et al.
# Submitted via: CDex 1.70beta2
#
DISCID=4e093b06
DTITLE=Carlos Garnet - Let This Melody Ring On
DYEAR=1975
DGENRE=Jazz
TTITLE0=Good Shepherd
TTITLE1=Panama Roots
TTITLE2=Ghetto Jungle
TTITLE3=Senor Trane
TTITLE4=Samba Serenade
TTITLE5=Let The Melody Ring On
EXTD=YEAR: 1975
EXTT0=
EXTT1=
EXTT2=
EXTT3=
EXTT4=
EXTT5=
PLAYORDER=
